<svg width="90" height="70" viewBox="0 0 90 70" fill="none" xmlns="http://www.w3.org/2000/svg">
<g clip-path="url(#clip0_1_33)">
<path d="M0.576814 46.9233H1.52491L2.60229 50.2584L3.67967 46.9233H4.62777L2.98682 51.7168H2.21774L0.576814 46.9233ZM0 46.9233H0.981247L1.16357 50.5974V51.7168H0V46.9233ZM4.22333 46.9233H5.20789V51.7168H4.041V50.5974L4.22333 46.9233Z" fill="white"/>
<path d="M7.87982 50.0903H6.67979V49.1983H7.87982C8.04337 49.1983 8.17596 49.1709 8.27763 49.1159C8.37928 49.0611 8.45333 48.9854 8.49972 48.8889C8.54835 48.79 8.57266 48.6793 8.57266 48.5563C8.57266 48.4246 8.54835 48.3028 8.49972 48.1909C8.45333 48.0789 8.37928 47.989 8.27763 47.9209C8.17596 47.8507 8.04337 47.8155 7.87982 47.8155H7.11737V51.7168H5.9538V46.9233H7.87982C8.26658 46.9233 8.59918 46.9935 8.87764 47.1341C9.15831 47.2745 9.3738 47.4677 9.52407 47.7135C9.67436 47.9571 9.74949 48.2359 9.74949 48.5498C9.74949 48.8592 9.67436 49.1291 9.52407 49.3595C9.3738 49.5901 9.15831 49.77 8.87764 49.8995C8.59918 50.0269 8.26658 50.0903 7.87982 50.0903Z" fill="white"/>
<path d="M12.8623 50.4427C12.8623 50.368 12.8512 50.3011 12.8291 50.2418C12.807 50.1803 12.7662 50.1234 12.7065 50.0708C12.6468 50.018 12.5606 49.9654 12.4479 49.9126C12.3374 49.8578 12.1916 49.8006 12.0103 49.7415C11.7982 49.6711 11.5938 49.5922 11.3971 49.5044C11.2004 49.4145 11.0247 49.3103 10.87 49.1916C10.7153 49.071 10.5926 48.9306 10.502 48.7702C10.4114 48.6079 10.3661 48.419 10.3661 48.2041C10.3661 47.9977 10.4125 47.8122 10.5053 47.6477C10.5981 47.4808 10.7274 47.3394 10.8932 47.2229C11.0611 47.1045 11.2578 47.0145 11.4832 46.953C11.7087 46.8893 11.9551 46.8575 12.2225 46.8575C12.5761 46.8575 12.8877 46.919 13.1573 47.042C13.4292 47.1626 13.6413 47.3348 13.7938 47.5589C13.9485 47.7805 14.0259 48.0427 14.0259 48.3457H12.8689C12.8689 48.2249 12.8435 48.1185 12.7927 48.0263C12.7441 47.934 12.67 47.8616 12.5706 47.809C12.4711 47.7562 12.3463 47.7299 12.196 47.7299C12.0501 47.7299 11.9275 47.7519 11.828 47.7958C11.7286 47.8397 11.6534 47.899 11.6026 47.9735C11.5518 48.0461 11.5263 48.1262 11.5263 48.214C11.5263 48.2864 11.5462 48.3522 11.586 48.4115C11.628 48.4685 11.6866 48.5223 11.7617 48.5727C11.8391 48.6233 11.9319 48.6716 12.0402 48.7176C12.1507 48.7637 12.2744 48.8088 12.4115 48.8525C12.6678 48.9338 12.8954 49.0249 13.0943 49.1258C13.2955 49.2246 13.4645 49.3375 13.6015 49.4649C13.7408 49.5901 13.8458 49.7326 13.9165 49.8928C13.9894 50.0532 14.0259 50.2341 14.0259 50.4362C14.0259 50.6511 13.9839 50.8421 13.8999 51.0088C13.8159 51.1757 13.6955 51.3173 13.5386 51.4336C13.3816 51.5477 13.1938 51.6345 12.975 51.6936C12.7562 51.7529 12.512 51.7826 12.2424 51.7826C11.9949 51.7826 11.7507 51.7517 11.5098 51.6905C11.2711 51.6268 11.0545 51.5301 10.86 51.4008C10.6655 51.2691 10.5097 51.1012 10.3926 50.8969C10.2777 50.6907 10.2202 50.4459 10.2202 50.1629H11.3871C11.3871 50.3033 11.4059 50.4217 11.4435 50.5184C11.481 50.6149 11.5363 50.6929 11.6092 50.7522C11.6822 50.8091 11.7717 50.8508 11.8777 50.8771C11.9838 50.9015 12.1054 50.9135 12.2424 50.9135C12.3904 50.9135 12.5098 50.8926 12.6004 50.8508C12.691 50.8069 12.7573 50.75 12.7993 50.6798C12.8413 50.6072 12.8623 50.5283 12.8623 50.4427Z" fill="white"/>
<path d="M16.9629 46.9233V51.7168H15.7994V46.9233H16.9629ZM18.4149 46.9233V47.8155H14.3806V46.9233H18.4149Z" fill="white"/>
<path d="M19.4857 46.9233H20.4338L21.5112 50.2584L22.5886 46.9233H23.5366L21.8957 51.7168H21.1267L19.4857 46.9233ZM18.9089 46.9233H19.8901L20.0724 50.5974V51.7168H18.9089V46.9233ZM23.1322 46.9233H24.1168V51.7168H22.9498V50.5974L23.1322 46.9233Z" fill="white"/>
<path d="M28.1843 50.8279V51.7168H25.6117V50.8279H28.1843ZM26.0261 46.9233V51.7168H24.8627V46.9233H26.0261ZM27.8528 48.8262V49.6856H25.6117V48.8262H27.8528ZM28.1943 46.9233V47.8155H25.6117V46.9233H28.1943Z" fill="white"/>
<path d="M54.9095 0L35.9418 18.5677H46.2387L54.9095 10.2257L63.445 18.5677H73.7418L54.9095 0Z" fill="#9046D4"/>
<path d="M54.9095 69.8307L35.9418 51.2629H46.2387L54.9095 59.605L63.445 51.2629H73.7418L54.9095 69.8307Z" fill="#FFA7FB"/>
<path d="M77.8064 22.6041H67.6451L79.7031 34.8481L67.6451 46.0157H77.8064L90 34.8481L77.8064 22.6041Z" fill="#E56DFC"/>
<path fill-rule="evenodd" clip-rule="evenodd" d="M10.277 40.4086C9.94652 40.6823 9.67112 40.9557 9.4508 41.2292C9.1754 41.4479 8.81739 41.6668 8.37675 41.8855C7.93611 42.1044 7.49543 42.2685 7.05479 42.3779C6.61416 42.4872 6.03584 42.542 5.3198 42.542C3.9428 42.542 2.7861 42.0771 1.84974 41.1471C0.913382 40.2172 0.44519 39.0412 0.44519 37.6191C0.44519 36.4156 0.693071 35.4584 1.18879 34.7473C1.62943 34.0362 2.29036 33.4618 3.17165 33.0242C4.05293 32.6413 5.12701 32.3679 6.39384 32.2038C7.6056 31.9849 8.92752 31.8482 10.3596 31.7934V31.7114C10.3596 30.8362 10.0291 30.2345 9.36814 29.9064C8.76226 29.5782 7.79836 29.414 6.47644 29.414C5.92565 29.414 5.26472 29.5234 4.49359 29.7423C3.72248 29.961 2.95136 30.2345 2.18025 30.5627H1.76714V26.7064C2.26286 26.597 3.06149 26.4329 4.1631 26.214C5.20961 26.0501 6.31121 25.968 7.46789 25.968C10.1668 25.968 12.1497 26.4056 13.4166 27.2808C14.6283 28.2106 15.2342 29.5782 15.2342 31.3831V42.1317H10.277V40.4086ZM10.277 37.9471V34.6652C9.4508 34.7746 8.78982 34.8566 8.2941 34.9114C7.79838 34.9662 7.30267 35.0755 6.80695 35.2395C6.36631 35.4036 6.03582 35.6225 5.81549 35.896C5.59517 36.2242 5.48504 36.6343 5.48504 37.1267C5.48504 37.8378 5.67779 38.3301 6.06335 38.6036C6.4489 38.8771 7.02727 39.0139 7.7984 39.0139C8.23904 39.0139 8.67966 38.9319 9.12031 38.7677C9.56095 38.5488 9.94652 38.2754 10.277 37.9471Z" fill="white"/>
<path d="M26.0592 42.542C24.7373 42.542 23.5531 42.3779 22.5066 42.0496C21.4049 41.7214 20.441 41.2019 19.6148 40.4908C18.8437 39.8343 18.2378 38.9864 17.7972 37.9471C17.3565 36.9078 17.1362 35.7045 17.1362 34.337C17.1362 32.8055 17.3841 31.52 17.8798 30.4806C18.3205 29.4413 18.9539 28.5661 19.7801 27.8551C20.6062 27.1988 21.5427 26.7337 22.5892 26.4602C23.6356 26.1321 24.7373 25.968 25.8939 25.968C26.7752 25.968 27.6565 26.0774 28.5378 26.2963C29.4191 26.4602 30.3003 26.7612 31.1816 27.1988V31.4654H30.5208C30.3555 31.2465 30.1351 31.0278 29.8597 30.8089C29.5292 30.5902 29.1988 30.3986 28.8683 30.2345C28.5378 30.0158 28.1523 29.8243 27.7116 29.6602C27.2159 29.5509 26.6926 29.4961 26.1418 29.4961C24.8751 29.4961 23.9111 29.9337 23.2501 30.8089C22.5341 31.6841 22.1761 32.8601 22.1761 34.337C22.1761 35.8687 22.5615 37.0173 23.3327 37.7832C24.0487 38.6036 25.0126 39.0139 26.2245 39.0139C26.8853 39.0139 27.4363 38.9319 27.8769 38.7677C28.3725 38.6582 28.7857 38.4943 29.1162 38.2754C29.4465 38.0567 29.7221 37.8651 29.9423 37.7011C30.1628 37.4822 30.3555 37.2908 30.5208 37.1267H31.1816V41.3113C30.9063 41.4206 30.5757 41.5575 30.1902 41.7216C29.8045 41.8855 29.4191 42.0223 29.0336 42.1317C28.5929 42.2412 28.1523 42.3231 27.7116 42.3779C27.326 42.4872 26.7752 42.542 26.0592 42.542Z" fill="white"/>
<path d="M52.6625 42.1317V34.2549C52.6625 33.4891 52.6625 32.8328 52.6625 32.2858C52.6076 31.7389 52.5249 31.3011 52.4146 30.973C52.2496 30.6448 52.0291 30.3986 51.7538 30.2345C51.4232 30.0705 51.0103 29.9885 50.5145 29.9885C50.129 30.043 49.7433 30.1251 49.3578 30.2345C48.9721 30.3986 48.5866 30.6448 48.2012 30.973V42.1317H43.2438V34.2549C43.2438 33.4891 43.2163 32.8328 43.1612 32.2858C43.1612 31.7389 43.0787 31.3011 42.9135 30.973C42.8031 30.6448 42.5829 30.3986 42.2524 30.2345C41.977 30.0705 41.5639 29.9885 41.0131 29.9885C40.6276 29.9885 40.2419 30.0978 39.8564 30.3165C39.471 30.4806 39.0853 30.6995 38.6998 30.973V42.1317H33.7426V26.3781H38.6998V28.1012C39.5259 27.4447 40.2971 26.9253 41.0131 26.5423C41.7291 26.1594 42.5278 25.968 43.4091 25.968C44.3455 25.968 45.1993 26.1867 45.9703 26.6243C46.6865 27.1167 47.2372 27.8005 47.6227 28.6757C48.5592 27.8005 49.4404 27.144 50.2666 26.7064C51.1479 26.2142 52.0017 25.968 52.8278 25.968C53.599 25.968 54.2598 26.0774 54.8106 26.2963C55.4165 26.5697 55.9123 26.9253 56.2978 27.3629C56.7384 27.8551 57.0689 28.4568 57.2894 29.1678C57.5096 29.8789 57.6197 30.7816 57.6197 31.8755V42.1317H52.6625Z" fill="white"/>
</g>
<defs>
<clipPath id="clip0_1_33">
<rect width="90" height="70" fill="white"/>
</clipPath>
</defs>
</svg>
